<svg xmlns="http://www.w3.org/2000/svg" width="512" height="512" viewBox="0 0 512 512" version="1.1">
	<path d="M 184.051 11.077 C 106.297 19.849, 40.503 70.692, 13.512 142.863 C 2.675 171.839, -1.726 203.195, 0.929 232.500 C 1.577 239.650, 3.629 253.375, 5.490 263 C 8.786 280.056, 10.046 287.621, 12.151 303 C 12.716 307.125, 13.476 330.156, 13.839 354.179 C 14.475 396.194, 14.579 397.963, 16.562 400.617 C 17.696 402.135, 19.865 404.304, 21.383 405.438 C 24.041 407.424, 25.757 407.522, 67.822 408.100 C 115.938 408.762, 121.353 409.244, 156.500 415.997 C 167.500 418.111, 179.650 420.117, 183.500 420.454 C 199.689 421.874, 197.996 421.024, 205.390 431.455 C 212.885 442.027, 227.058 456.899, 237.500 465.149 C 277.290 496.583, 328.922 508.475, 379.799 497.922 C 407.469 492.183, 432.140 490.053, 471.350 490.019 L 493.200 490 496.600 486.600 L 500 483.200 500.021 458.850 C 500.053 420.136, 501.409 403.769, 507.028 374.256 C 511.006 353.364, 512.284 339.658, 511.526 326 C 507.990 262.242, 473.106 208.844, 416.725 180.881 L 408.384 176.745 405.519 165.622 C 384.885 85.532, 319.930 26.152, 238 12.482 C 226.510 10.565, 195.702 9.763, 184.051 11.077 M 98.763 196.514 C 85.763 201.289, 77.732 212.788, 77.689 226.690 C 77.670 232.793, 78.153 234.869, 80.883 240.414 C 92.463 263.936, 125.537 263.936, 137.117 240.414 C 147.522 219.278, 132.192 194.804, 108.712 195.070 C 105.296 195.109, 100.818 195.759, 98.763 196.514 M 190.139 196.147 C 185.492 197.485, 179.341 201.521, 175.344 205.856 C 168.930 212.812, 166.182 225.533, 168.907 235.655 C 172.352 248.448, 185.253 258, 199.088 258 C 218.983 258, 233.853 240.179, 230.057 220.886 C 228.630 213.632, 223.832 205.499, 218.647 201.544 C 211.039 195.741, 199.284 193.516, 190.139 196.147 M 277.590 197.477 C 270.569 200.363, 264.815 205.632, 261.183 212.500 C 258.896 216.823, 258.536 218.718, 258.519 226.500 C 258.503 234.110, 258.879 236.243, 260.957 240.310 C 270.722 259.424, 295.523 263.880, 311.092 249.317 C 317.752 243.088, 320.443 236.544, 320.475 226.500 C 320.496 219.727, 320.070 217.624, 317.694 212.786 C 310.363 197.858, 292.889 191.188, 277.590 197.477" stroke="none" fill="black" fill-rule="evenodd"/>
</svg>