<svg xmlns="http://www.w3.org/2000/svg" width="512" height="512" viewBox="0 0 512 512" version="1.1">
	<path d="M 233.500 0.590 C 196.461 4.240, 169.720 11.538, 140.500 25.975 C 112.616 39.751, 92.813 54.181, 70.986 76.629 C 33.425 115.259, 10.586 161.861, 2.342 216.695 C 0.073 231.787, 0.052 261.925, 2.300 277.058 C 10.466 332.046, 35.202 380.183, 74.816 418.183 L 84.911 427.865 85.205 466.183 C 85.476 501.392, 85.649 504.719, 87.332 507.199 C 89.387 510.228, 94.974 512.481, 98.303 511.625 C 99.511 511.314, 114.125 502.561, 130.777 492.173 L 161.054 473.286 170.777 476.588 C 212.080 490.612, 260.318 494.330, 304.278 486.876 C 396.464 471.244, 473.991 402.438, 501.318 312 C 506.447 295.027, 510.894 270.940, 511.070 259.178 C 511.123 255.645, 511.351 254.989, 512 256.500 C 512.548 257.775, 512.885 254.220, 512.930 246.691 C 512.975 239.056, 512.647 235.100, 512 235.500 C 511.387 235.879, 510.993 234.256, 510.982 231.309 C 510.972 228.664, 510.304 221.863, 509.499 216.196 C 503.497 173.976, 486.820 133.799, 461.074 99.540 C 451.485 86.780, 431.420 66.114, 418.500 55.692 C 383.762 27.668, 341.100 9.182, 295.500 2.394 C 285.971 0.975, 242.444 -0.291, 233.500 0.590 M 153.240 237.250 C 105.897 284.561, 86.721 304.358, 86.159 306.500 C 85.092 310.572, 85.784 313.475, 88.526 316.434 C 91.464 319.604, 95.522 320.619, 99.403 319.154 C 101.081 318.521, 126.808 304.727, 156.573 288.501 C 186.339 272.276, 211.216 259, 211.856 259 C 212.496 259, 228.755 272.489, 247.988 288.975 C 267.220 305.462, 284.091 319.236, 285.478 319.584 C 286.865 319.932, 289.238 319.916, 290.750 319.549 C 294.199 318.711, 423.568 189.962, 425.559 185.385 C 428.427 178.792, 423.357 171, 416.198 171 C 413.454 171, 400.169 177.817, 356.672 201.545 C 325.876 218.345, 300.145 231.886, 299.493 231.636 C 298.840 231.385, 283.725 218.651, 265.903 203.338 C 225.540 168.657, 228.602 171, 223.633 171 C 219.544 171, 219.387 171.148, 153.240 237.250 M 0.382 247.500 C 0.384 254.100, 0.546 256.670, 0.741 253.211 C 0.937 249.752, 0.936 244.352, 0.738 241.211 C 0.540 238.070, 0.380 240.900, 0.382 247.500" stroke="none" fill="black" fill-rule="evenodd"/>
</svg>